# xmcd CD database file
#
# Track frame offsets:
#	150
#	20340
#	32944
#	50272
#	72172
#	82862
#	106526
#	120345
#	139271
#	160685
#	185095
#
# Disc length: 2729 seconds
#
# Revision: 0
# Processed by: cddbd v1.5.1PL0 Copyright (c) Steve Scherf et al.
# Submitted via: ACXtractor (MTCDDB.DLL V2003.12.21)
#
DISCID=820aa70b
DTITLE=Susan Tedeshi - Just won´t Burn
DYEAR=1998
DGENRE=Blues
TTITLE0=Rock Me Right
TTITLE1=You Need to Be With Me
TTITLE2=Little by Little
TTITLE3=It Hurts So Bad
TTITLE4=Found Someone New
TTITLE5=Looking for Answers
TTITLE6=Can't Leave You Alone
TTITLE7=Just Won't Burn
TTITLE8=(Mama) He Treats Your Daughter Mean
TTITLE9=Angel from Montgomery
TTITLE10=Friar's Point
EXTD=ID3G:   0 YEAR: 1998
EXTT0=
EXTT1=
EXTT2=
EXTT3=
EXTT4=
EXTT5=
EXTT6=
EXTT7=
EXTT8=
EXTT9=
EXTT10=
PLAYORDER=
